<?xml version="1.0" encoding="UTF-8" standalone="no"?>
<svg
   version="1.1"
   viewBox="-5 -10 86.594139 74.094139"
   id="svg5"
   width="86.594139"
   height="74.094139"
   sodipodi:docname="bot.svg"
   inkscape:version="1.3.2 (091e20e, 2023-11-25, custom)"
   xmlns:inkscape="http://www.inkscape.org/namespaces/inkscape"
   xmlns:sodipodi="http://sodipodi.sourceforge.net/DTD/sodipodi-0.dtd"
   xmlns="http://www.w3.org/2000/svg"
   xmlns:svg="http://www.w3.org/2000/svg">
  <sodipodi:namedview
     id="namedview1"
     pagecolor="#ffffff"
     bordercolor="#000000"
     borderopacity="0.25"
     inkscape:showpageshadow="2"
     inkscape:pageopacity="0.0"
     inkscape:pagecheckerboard="0"
     inkscape:deskcolor="#d1d1d1"
     inkscape:zoom="9.5525926"
     inkscape:cx="43.33902"
     inkscape:cy="37.110344"
     inkscape:window-width="1920"
     inkscape:window-height="1009"
     inkscape:window-x="-8"
     inkscape:window-y="56"
     inkscape:window-maximized="1"
     inkscape:current-layer="svg5" />
  <defs
     id="defs5">
    <inkscape:path-effect
       effect="powerstroke"
       id="path-effect1"
       is_visible="true"
       lpeversion="1.3"
       scale_width="2.2191401"
       interpolator_type="CentripetalCatmullRom"
       interpolator_beta="0.2"
       start_linecap_type="zerowidth"
       end_linecap_type="zerowidth"
       offset_points="13.5,0.5 | 29,0.5 | 35,0.5 | 41,0.5 | 45,0.5 | 49,0.5 | 53,0.5 | 58,0.5 | 64,0.5 | 71.5,0.5"
       linejoin_type="round"
       miter_limit="4"
       not_jump="false"
       sort_points="true"
       message="&lt;b&gt;Ctrl + click&lt;/b&gt; on existing node and move it" />
    <inkscape:path-effect
       effect="fill_between_many"
       method="bsplinespiro"
       autoreverse="false"
       close="false"
       join="false"
       linkedpaths="#path1,0,1"
       id="path-effect2"
       is_visible="true"
       lpeversion="0" />
  </defs>
  <path
     id="path2"
     style="fill:#000000"
     d="M 37.187305 -11.10957 C 36.236649 -11.10957 35.261976 -10.92883 34.322071 -10.531445 C 33.483571 -10.176934 32.679907 -9.6529528 31.982227 -8.9552731 C 31.342824 -8.3158706 30.792949 -7.530524 30.406055 -6.6154294 C 30.045721 -5.7631575 29.82793 -4.795852 29.82793 -3.750195 C 29.82793 -2.1232986 30.365369 -0.53193597 31.404102 0.781055 C 32.182876 1.7654498 33.24376 2.5875158 34.51543 3.0857425 L 34.51543 10.76543 L 10.624805 10.76543 C 9.4042118 10.76543 8.2292407 11.01078 7.1521486 11.466602 C 6.0912473 11.915573 5.1283292 12.566593 4.3162111 13.378711 C 3.5144845 14.180438 2.8588643 15.140063 2.4041018 16.214649 C 1.9544392 17.277184 1.7029299 18.451169 1.7029299 19.687305 L 1.7029299 26.39043 L -0.3126951 26.39043 C -1.1083564 26.390431 -1.8709766 26.553884 -2.5666014 26.849414 C -3.2590983 27.143617 -3.8838608 27.567064 -4.4083982 28.091602 C -4.9315187 28.614722 -5.3556143 29.239089 -5.6505857 29.933399 C -5.9452971 30.627099 -6.1095691 31.389603 -6.1095701 32.187305 L -6.1095701 41.562305 C -6.1095691 42.360014 -5.9452944 43.122518 -5.6505857 43.816211 C -5.3556115 44.510527 -4.9315187 45.134888 -4.4083982 45.658008 C -3.8838592 46.182547 -3.2590943 46.607949 -2.5666014 46.902149 C -1.8709765 47.197679 -1.1083491 47.359179 -0.3126951 47.35918 L 1.7029299 47.35918 L 1.7029299 54.062305 C 1.7029299 55.298438 1.9544415 56.472429 2.4041018 57.534961 C 2.8588685 58.609557 3.5144849 59.569172 4.3162111 60.370899 C 5.1283291 61.183017 6.0912568 61.834041 7.1521486 62.283008 C 8.2292472 62.738833 9.4042155 62.984179 10.624805 62.98418 L 37.187305 62.98418 L 63.749805 62.98418 C 64.970406 62.984179 66.145372 62.738829 67.222461 62.283008 C 68.283363 61.834037 69.246281 61.183017 70.058399 60.370899 C 70.860125 59.569172 71.515746 58.609547 71.970508 57.534961 C 72.420173 56.472419 72.67168 55.298437 72.67168 54.062305 L 72.67168 47.35918 L 74.687305 47.35918 C 75.482966 47.359179 76.245586 47.197679 76.941211 46.902149 C 77.633704 46.607949 78.258469 46.182547 78.783008 45.658008 C 79.306129 45.134888 79.732177 44.510521 80.027149 43.816211 C 80.32186 43.122511 80.484179 42.360007 80.48418 41.562305 L 80.48418 32.187305 C 80.484179 31.389596 80.321857 30.627092 80.027149 29.933399 C 79.732174 29.239083 79.306129 28.614722 78.783008 28.091602 C 78.258471 27.567064 77.633702 27.143614 76.941211 26.849414 C 76.24558 26.553881 75.482959 26.390431 74.687305 26.39043 L 72.67168 26.39043 L 72.67168 19.687305 C 72.67168 18.451169 72.420171 17.277184 71.970508 16.214649 C 71.515746 15.140063 70.860125 14.180438 70.058399 13.378711 C 69.246281 12.566593 68.283353 11.915569 67.222461 11.466602 C 66.14536 11.010776 64.970398 10.76543 63.749805 10.76543 L 39.85918 10.76543 L 39.85918 3.0857425 C 41.130848 2.5875109 42.193686 1.7654489 42.972461 0.781055 C 44.011195 -0.53193331 44.54668 -2.1232978 44.54668 -3.750195 C 44.54668 -4.795852 44.328888 -5.7631575 43.968555 -6.6154294 C 43.58166 -7.530524 43.031786 -8.3158706 42.392383 -8.9552731 C 41.694703 -9.6529528 40.891039 -10.176934 40.052539 -10.531445 C 39.112633 -10.92883 38.137961 -11.10957 37.187305 -11.10957 z M 37.187305 -5.76582 C 37.396185 -5.76582 37.669979 -5.7336295 37.966602 -5.6076169 C 38.183902 -5.5153027 38.407748 -5.3735023 38.60918 -5.17207 C 38.784155 -4.9970949 38.937703 -4.7814165 39.044727 -4.5294919 C 39.143808 -4.2962627 39.20293 -4.0339798 39.20293 -3.750195 C 39.20293 -3.4747305 39.147336 -3.212432 39.044727 -2.9708981 C 38.941924 -2.7289079 38.792129 -2.5112695 38.60918 -2.32832 C 38.420508 -2.1396485 38.201205 -1.9924384 37.966602 -1.8927731 C 37.716066 -1.7863396 37.451862 -1.73457 37.187305 -1.73457 C 36.922747 -1.73457 36.658544 -1.7863396 36.408008 -1.8927731 C 36.173404 -1.9924384 35.954101 -2.1396488 35.76543 -2.32832 C 35.58248 -2.5112698 35.432686 -2.7289083 35.329883 -2.9708981 C 35.227274 -3.2124323 35.17168 -3.4747309 35.17168 -3.750195 C 35.17168 -4.0339802 35.230802 -4.2962627 35.329883 -4.5294919 C 35.436907 -4.7814165 35.590455 -4.9970949 35.76543 -5.17207 C 35.966862 -5.3735023 36.190708 -5.5153027 36.408008 -5.6076169 C 36.704631 -5.7336295 36.978424 -5.76582 37.187305 -5.76582 z M 10.624805 16.10918 L 63.749805 16.10918 C 64.228274 16.10918 64.697677 16.20399 65.136524 16.39043 C 65.554724 16.568099 65.942454 16.829173 66.275196 17.161914 C 66.596081 17.482799 66.862544 17.867163 67.04668 18.300586 C 67.225864 18.722353 67.32793 19.190532 67.32793 19.687305 L 67.32793 54.062305 C 67.32793 54.558773 67.225987 55.026966 67.04668 55.449024 C 66.862681 55.882125 66.596336 56.266555 66.275196 56.587696 C 65.942766 56.920125 65.555131 57.181338 65.136524 57.35918 C 64.698234 57.545383 64.228883 57.64043 63.749805 57.64043 L 10.624805 57.64043 C 10.135395 57.64043 9.6668005 57.541315 9.2380862 57.35918 C 8.8116771 57.178024 8.4258147 56.914096 8.0994143 56.587696 C 7.7728298 56.261111 7.5089852 55.875195 7.3279299 55.449024 C 7.1456832 55.020048 7.0466799 54.551438 7.0466799 54.062305 L 7.0466799 19.687305 C 7.0466799 19.177101 7.1542487 18.7094 7.3279299 18.300586 C 7.5190223 17.850789 7.7921831 17.469146 8.0994143 17.161914 C 8.4531319 16.808197 8.8481757 16.55608 9.2380862 16.39043 C 9.7337699 16.179843 10.212612 16.10918 10.624805 16.10918 z M 21.562305 21.70293 C 20.638411 21.70293 19.412907 21.844102 18.089649 22.404102 C 17.123106 22.813141 16.135802 23.434121 15.253711 24.316211 C 14.488016 25.081906 13.815274 26.032879 13.341602 27.152149 C 12.901191 28.192823 12.64043 29.365705 12.64043 30.624805 C 12.64043 31.844572 12.885451 33.019595 13.341602 34.097461 C 13.796733 35.172919 14.452939 36.132627 15.253711 36.933399 C 16.079655 37.759343 17.046771 38.404164 18.089649 38.845508 C 19.210067 39.319667 20.389152 39.54668 21.562305 39.54668 C 22.735458 39.54668 23.914543 39.319667 25.034961 38.845508 C 26.077839 38.404164 27.044956 37.759341 27.870899 36.933399 C 28.671672 36.132626 29.327877 35.172917 29.783008 34.097461 C 30.239159 33.019593 30.48418 31.84457 30.48418 30.624805 C 30.48418 29.365704 30.223419 28.192823 29.783008 27.152149 C 29.309335 26.032879 28.636593 25.081906 27.870899 24.316211 C 26.988808 23.434121 26.001504 22.813141 25.034961 22.404102 C 23.711703 21.844102 22.486198 21.70293 21.562305 21.70293 z M 52.812305 21.70293 C 51.888411 21.70293 50.662907 21.844102 49.339649 22.404102 C 48.373106 22.813141 47.385802 23.434121 46.503711 24.316211 C 45.738016 25.081906 45.065274 26.032879 44.591602 27.152149 C 44.151191 28.192823 43.89043 29.365705 43.89043 30.624805 C 43.89043 31.844572 44.135451 33.019595 44.591602 34.097461 C 45.046733 35.172919 45.702939 36.132627 46.503711 36.933399 C 47.329655 37.759343 48.296771 38.404164 49.339649 38.845508 C 50.460067 39.319667 51.639152 39.54668 52.812305 39.54668 C 53.985458 39.54668 55.164543 39.319667 56.284961 38.845508 C 57.327839 38.404164 58.294956 37.759341 59.120899 36.933399 C 59.921672 36.132626 60.577877 35.172917 61.033008 34.097461 C 61.489159 33.019593 61.73418 31.84457 61.73418 30.624805 C 61.73418 29.365704 61.473419 28.192823 61.033008 27.152149 C 60.559335 26.032879 59.886593 25.081906 59.120899 24.316211 C 58.238808 23.434121 57.251504 22.813141 56.284961 22.404102 C 54.961703 21.844102 53.736198 21.70293 52.812305 21.70293 z M 21.562305 27.04668 C 21.932741 27.04668 22.421109 27.10365 22.949024 27.32793 C 23.335317 27.492043 23.73139 27.743109 24.087696 28.099414 C 24.397114 28.408833 24.668998 28.790433 24.85918 29.238086 C 25.035519 29.653157 25.14043 30.121042 25.14043 30.624805 C 25.14043 31.112927 25.041828 31.581604 24.85918 32.011524 C 24.676477 32.441573 24.411245 32.826646 24.087696 33.150196 C 23.754006 33.483885 23.365983 33.744538 22.949024 33.92168 C 22.502114 34.111546 22.031889 34.20293 21.562305 34.20293 C 21.092721 34.20293 20.622496 34.111546 20.175586 33.92168 C 19.758627 33.744538 19.370604 33.483885 19.036914 33.150196 C 18.713364 32.826646 18.448132 32.441572 18.26543 32.011524 C 18.082782 31.581603 17.98418 31.112926 17.98418 30.624805 C 17.98418 30.121041 18.089091 29.653157 18.26543 29.238086 C 18.455611 28.790433 18.727496 28.408833 19.036914 28.099414 C 19.39322 27.743109 19.789293 27.492043 20.175586 27.32793 C 20.703501 27.10365 21.191868 27.04668 21.562305 27.04668 z M 52.812305 27.04668 C 53.182741 27.04668 53.671109 27.10365 54.199024 27.32793 C 54.585317 27.492043 54.98139 27.743109 55.337696 28.099414 C 55.647114 28.408833 55.918998 28.790433 56.10918 29.238086 C 56.285519 29.653157 56.39043 30.121042 56.39043 30.624805 C 56.39043 31.112927 56.291828 31.581604 56.10918 32.011524 C 55.926477 32.441573 55.661245 32.826646 55.337696 33.150196 C 55.004006 33.483885 54.615983 33.744538 54.199024 33.92168 C 53.752114 34.111546 53.281889 34.20293 52.812305 34.20293 C 52.342721 34.20293 51.872496 34.111546 51.425586 33.92168 C 51.008627 33.744538 50.620604 33.483885 50.286914 33.150196 C 49.963364 32.826646 49.698132 32.441572 49.51543 32.011524 C 49.332782 31.581603 49.23418 31.112926 49.23418 30.624805 C 49.23418 30.121041 49.339091 29.653157 49.51543 29.238086 C 49.705611 28.790433 49.977496 28.408833 50.286914 28.099414 C 50.64322 27.743109 51.039293 27.492043 51.425586 27.32793 C 51.953501 27.10365 52.441868 27.04668 52.812305 27.04668 z M -0.3126951 31.73418 L 1.7029299 31.73418 L 1.7029299 42.01543 L -0.3126951 42.01543 C -0.3729689 42.01543 -0.42992111 42.003491 -0.4845701 41.980274 C -0.53688061 41.95805 -0.58743196 41.924287 -0.63105448 41.880664 C -0.67313324 41.838586 -0.70759714 41.790429 -0.73066385 41.736133 C -0.75293564 41.683708 -0.76582008 41.624974 -0.7658201 41.562305 L -0.7658201 32.187305 C -0.7658201 32.122925 -0.75223682 32.06621 -0.73066385 32.01543 C -0.7066521 31.95891 -0.67133636 31.909228 -0.63105448 31.868946 C -0.58495653 31.822848 -0.53300129 31.789911 -0.4845701 31.769336 C -0.42161676 31.742592 -0.36310267 31.73418 -0.3126951 31.73418 z M 72.67168 31.73418 L 74.687305 31.73418 C 74.748213 31.73418 74.807065 31.746366 74.861133 31.769336 C 74.913882 31.791746 74.962378 31.82566 75.005664 31.868946 C 75.048025 31.911306 75.082359 31.961492 75.105274 32.01543 C 75.127685 32.068184 75.14043 32.124985 75.14043 32.187305 L 75.14043 41.562305 C 75.14043 41.622579 75.12849 41.681484 75.105274 41.736133 C 75.08305 41.788444 75.049287 41.837042 75.005664 41.880664 C 74.963585 41.922743 74.915429 41.957207 74.861133 41.980274 C 74.808708 42.002546 74.749974 42.01543 74.687305 42.01543 L 72.67168 42.01543 L 72.67168 31.73418 z M 45.062305 40.450977 C 44.802026 40.444598 44.441807 40.474514 44.04668 40.626758 C 43.752468 40.74012 43.439596 40.921938 43.152149 41.200977 C 42.075813 42.230049 40.874156 42.846954 39.718555 43.195118 C 39.184153 43.356124 38.680138 43.453514 38.236133 43.509571 C 37.806009 43.563875 37.446204 43.57793 37.187305 43.57793 C 35.645966 43.57793 34.345568 43.172328 33.312305 42.652149 C 32.807543 42.398035 32.375456 42.120517 32.021289 41.861133 C 31.669261 41.603316 31.397705 41.366046 31.214649 41.193164 C 30.950434 40.942154 30.643764 40.754714 30.318164 40.632618 C 29.991626 40.510169 29.649404 40.454434 29.312305 40.462696 C 28.971492 40.471049 28.634396 40.545097 28.320117 40.679493 C 27.999712 40.816508 27.70518 41.016341 27.454883 41.273243 A 1.1115264 1.1077524 88.990018 0 0 27.445117 41.283008 C 27.190771 41.550741 27.004605 41.85577 26.882617 42.175586 C 26.756952 42.505044 26.700283 42.847273 26.706836 43.181446 C 26.713326 43.512388 26.781852 43.85488 26.923633 44.183399 C 27.059022 44.497106 27.260917 44.796021 27.533008 45.054493 C 27.836532 45.341161 28.27736 45.728027 28.849414 46.148243 C 29.405083 46.556422 30.096925 47.005029 30.917774 47.419727 C 32.511719 48.224998 34.620623 48.92168 37.187305 48.92168 C 38.026241 48.92168 39.522028 48.831361 41.269336 48.300586 C 43.014295 47.770524 45.010664 46.800573 46.843555 45.052539 C 47.107659 44.801644 47.31169 44.507148 47.450977 44.189258 C 47.591387 43.868804 47.665297 43.527422 47.673633 43.187305 C 47.682098 42.841918 47.622955 42.496359 47.497852 42.17168 C 47.370691 41.841662 47.176569 41.537946 46.923633 41.277149 C 46.665178 41.006527 46.370263 40.807711 46.064258 40.673633 C 45.729478 40.526947 45.385549 40.458899 45.062305 40.450977 z "
     transform="translate(1.1095701,1.10957)" />
</svg>
